<svg width="156" height="34" viewBox="0 0 156 34" fill="none" xmlns="http://www.w3.org/2000/svg">
<path d="M34.3213 0C35.939 2.83334 37.5567 5.66667 39.1744 8.47821C35.939 8.50001 32.6818 8.50001 29.4464 8.5218C28.9654 8.5218 28.5064 8.50001 28.0254 8.50001C25.2491 8.47821 22.4509 8.47821 19.6746 8.47821C20.7458 6.64744 21.817 4.83846 22.8663 3.00769C23.4347 2.02692 23.9593 1.00256 24.484 0C27.7631 0 31.0422 0 34.3213 0Z" fill="#019DD7"/>
<path d="M24.4839 0C23.9374 1.00256 23.4346 2.00513 22.8662 3.00769C21.8169 4.83846 20.7457 6.64744 19.6745 8.47821C19.6308 8.5218 19.5652 8.54359 19.4996 8.54359C16.2861 8.5218 13.0726 8.5 9.85906 8.5C10.493 7.32308 11.127 6.14616 11.7828 4.99103C12.7228 3.31282 13.6847 1.65641 14.6466 0C17.9257 0 21.2048 0 24.4839 0Z" fill="#02BAF0"/>
<path d="M0 25.0641C0.218607 24.7808 0.459075 24.5192 0.633961 24.2359C1.96747 21.9474 3.30097 19.659 4.63447 17.3487C4.65633 17.2833 4.74378 17.2615 4.7875 17.2179C4.96238 17.3269 5.18099 17.3923 5.26843 17.5449C5.74937 18.3077 6.20845 19.0705 6.66752 19.8333C7.58567 21.4243 8.48196 23.0154 9.40011 24.5846C9.53128 24.7808 9.81546 24.8897 10.0341 25.0423C9.85919 25.4128 9.6843 25.8051 9.48755 26.1756C8.26335 28.3333 7.03915 30.491 5.81495 32.6269C5.61821 32.9974 5.37774 33.3243 5.07169 33.782C4.21912 32.3436 3.41027 30.9705 2.62329 29.6192C1.88002 28.3551 1.13676 27.0692 0.393493 25.8051C0.30605 25.6525 0.131164 25.5654 0 25.4564C0 25.3474 0 25.2167 0 25.0641Z" fill="#CDEAF2"/>
<path d="M155.014 10.7012C154.861 10.8974 154.708 11.0935 154.512 11.3551C154.337 11.1589 154.184 10.9846 153.987 10.7666C153.921 11.1153 153.856 11.4205 153.747 11.8999C153.178 11.2461 153.594 10.5922 153.309 9.98199C153.134 10.0038 152.894 10.0038 152.632 10.0474C152.61 10.6358 152.566 11.1807 152.544 11.7474C151.954 11.3115 152.216 10.7448 152.085 10.1999C151.932 10.091 151.714 9.96019 151.495 9.82942C151.517 9.78583 151.539 9.72045 151.539 9.67686C152.304 9.67686 153.047 9.67686 153.9 9.67686C154.053 9.89481 154.249 10.1781 154.446 10.4615C154.927 10.3525 154.774 9.5025 155.452 9.65506C155.517 10.2217 155.583 10.8102 155.648 11.3769C155.648 11.5294 155.648 11.6602 155.648 11.8128C155.495 11.7692 155.321 11.7474 155.102 11.7038C155.124 11.3987 155.124 11.0935 155.146 10.8102C155.146 10.7448 155.146 10.6794 155.124 10.614C155.102 10.5922 155.058 10.6576 155.014 10.7012Z" fill="#273887"/>
<path d="M24.4842 34C24.4842 33.9346 24.4842 33.8692 24.4842 33.8038C24.5498 33.7821 24.6372 33.7603 24.7028 33.7385C27.9163 33.7603 31.108 33.7603 34.3215 33.7821C34.3215 33.8474 34.3215 33.9128 34.3215 34C31.0424 34 27.7633 34 24.4842 34Z" fill="#CDEAF2"/>
<path d="M155.649 11.3333C155.583 10.7666 155.517 10.1782 155.452 9.61152C155.517 9.52434 155.583 9.45895 155.649 9.37177C155.649 10.0256 155.649 10.6795 155.649 11.3333Z" fill="#0D6EAF"/>
<path d="M53.2964 23.3859C53.2964 26.2193 53.2964 28.8129 53.2964 31.4936C52.0941 31.4936 50.9355 31.4936 49.7113 31.4936C49.6894 31.2975 49.6238 31.0577 49.6238 30.818C49.6238 26.2411 49.5582 21.6641 49.6457 17.109C49.7113 13.5128 51.5476 10.0693 55.6792 9.04489C59.3081 8.1513 62.5872 8.78335 65.0575 11.791C68.4896 15.9757 67.1998 23.8436 60.6416 25.3693C58.2369 25.9359 55.9416 25.5872 53.9741 23.9526C53.8211 23.8218 53.6462 23.6911 53.2964 23.3859ZM63.0463 17.1744C63.0244 16.8475 63.0026 16.5205 62.9589 16.1936C62.6747 13.9487 61.0351 12.3577 58.5648 12.0744C56.7941 11.8782 54.5643 12.7718 53.668 14.9513C53.2527 15.9539 53.209 17 53.3183 18.0462C53.7118 21.359 57.2313 23.277 60.2481 21.8385C62.2156 20.9013 62.9807 19.2231 63.0463 17.1744Z" fill="#223484"/>
<path d="M111.927 25.1513C110.965 25.2603 110.113 25.4128 109.238 25.4346C107.03 25.4782 104.8 25.5654 102.592 25.4564C101.521 25.4128 100.45 25.0859 99.4445 24.6718C97.2803 23.8 96.6026 22.209 96.7338 19.9641C96.9305 16.7385 98.8761 15.6051 102.002 15.2782C103.795 15.0821 105.631 15.2346 107.446 15.2346C107.686 15.2346 107.948 15.2346 108.189 15.2346C108.276 13.5128 107.511 12.3577 105.915 11.9872C103.904 11.5295 101.871 11.5077 99.9254 12.3795C99.6631 12.4885 99.4008 12.6192 99.1385 12.7282C97.7394 11.6603 97.8487 10.091 99.4226 9.37181C100.144 9.04489 100.953 8.84873 101.718 8.78335C103.576 8.60899 105.412 8.65258 107.249 9.15386C110.266 9.96027 111.927 12.0526 111.949 15.1257C111.971 18.2423 111.949 21.359 111.949 24.4975C111.971 24.6718 111.949 24.8462 111.927 25.1513ZM108.32 18.0462C107.62 17.959 106.986 17.8282 106.331 17.7846C104.888 17.6975 103.423 17.6103 102.024 18.0898C100.953 18.4603 100.406 19.3103 100.428 20.4218C100.45 21.4898 100.975 22.2744 102.068 22.5795C104.123 23.1244 106.199 22.9936 108.298 22.6231C108.32 21.0975 108.32 19.659 108.32 18.0462Z" fill="#223484"/>
<path d="M86.8308 17.1744C86.9839 21.5333 83.4424 25.5872 78.0865 25.6308C73.0804 25.6744 69.2329 21.9257 69.2767 17.109C69.2985 12.2705 73.0586 8.71796 78.0865 8.71796C83.2457 8.69616 87.0057 12.6846 86.8308 17.1744ZM78.0428 11.9654C75.2009 11.9654 73.1023 14.1885 73.1023 17.1962C73.1023 20.0949 75.2446 22.3615 77.9991 22.3615C80.9066 22.3615 83.0052 20.2257 82.9834 17.1744C82.9834 13.5564 80.4694 11.9436 78.0428 11.9654Z" fill="#223484"/>
<path d="M149.112 13.0988C147.057 11.7911 144.762 11.3988 142.357 11.5731C141.81 11.6167 141.264 11.7257 140.761 11.9218C139.952 12.2052 139.581 12.75 139.603 13.4693C139.624 14.2321 140.083 14.7116 140.761 14.8641C141.92 15.1257 143.1 15.3 144.281 15.4962C145.396 15.6923 146.489 15.8885 147.604 16.1065C147.888 16.1718 148.15 16.2808 148.434 16.3898C151.429 17.7193 152.085 21.468 149.746 23.7565C148.828 24.65 147.713 25.1295 146.467 25.3475C142.882 26.0013 139.45 25.5 136.17 23.9526C136.017 23.8872 135.864 23.7565 135.646 23.6039C136.083 22.7975 136.52 22.0129 136.914 21.2936C138.422 21.7077 139.843 22.209 141.33 22.5141C142.794 22.8193 144.303 22.8411 145.767 22.427C146.248 22.2744 146.795 21.9693 147.079 21.577C147.691 20.6834 147.144 19.55 145.942 19.2449C144.937 18.9834 143.865 18.8744 142.816 18.7436C141.417 18.5475 139.996 18.4603 138.663 17.8718C137.176 17.218 136.149 16.15 135.952 14.4718C135.755 12.5975 136.302 11.05 137.941 9.9603C138.99 9.26286 140.193 8.93594 141.417 8.80517C143.45 8.60901 145.483 8.6526 147.494 9.17568C148.019 9.30645 148.544 9.5026 149.003 9.76414C150.62 10.6577 150.664 11.9436 149.112 13.0988Z" fill="#223484"/>
<path d="M93.6514 25.1514C92.4053 25.1514 91.2904 25.1514 90.0881 25.1514C90.0662 24.8245 90.0225 24.4975 90.0225 24.1924C90.0225 17.3924 90.0225 10.6142 90.0225 3.81419C90.0225 2.13599 90.5909 1.59112 92.2741 1.72189C92.7332 1.74368 93.1923 1.89624 93.6514 1.98342C93.6514 9.7424 93.6514 17.3924 93.6514 25.1514Z" fill="#273887"/>
<path d="M43.9619 17C43.6995 17.5013 43.4591 18.0244 43.1749 18.5256C41.7539 20.9449 40.333 23.3423 38.912 25.7615C38.5841 25.6744 38.2562 25.5436 37.9283 25.5218C35.1083 25.5 32.3101 25.5 29.4901 25.5C29.4901 25.4128 29.4901 25.3256 29.4682 25.2385C29.5994 24.9769 29.7087 24.7154 29.8398 24.4756C31.2827 21.991 32.7036 19.5064 34.1464 17C37.4474 17 40.7046 17 43.9619 17Z" fill="#0D6EAF"/>
<path d="M43.9617 17C40.7045 17 37.4473 17 34.1681 17C33.9714 16.5859 33.7747 16.15 33.556 15.7577C32.2007 13.3385 30.8235 10.941 29.4462 8.54359C32.6816 8.5218 35.9389 8.52179 39.1742 8.5C40.7482 11.2026 42.3441 13.9051 43.918 16.6077C43.9836 16.6949 43.9399 16.8692 43.9617 17Z" fill="#028DC0"/>
<path d="M119.36 25.1513C118.114 25.1513 116.955 25.1513 115.731 25.1513C115.709 24.8897 115.665 24.6064 115.643 24.3449C115.643 21.3372 115.643 18.3077 115.643 15.3C115.643 14.7551 115.643 14.2103 115.753 13.6654C116.255 10.832 118.004 9.19743 121.087 8.78332C122.529 8.58717 123.994 8.63076 125.393 9.13204C127.208 9.76409 127.557 11.1808 126.246 12.6192C125.502 12.4449 124.781 12.1615 124.038 12.0961C123.229 12.0308 122.354 12.0308 121.568 12.2269C120.059 12.641 119.534 13.8615 119.381 15.3C119.316 15.9103 119.36 16.5423 119.36 17.1526C119.36 19.441 119.36 21.7295 119.36 24.0179C119.36 24.3885 119.36 24.7372 119.36 25.1513Z" fill="#223484"/>
<path d="M29.5121 25.5C32.3321 25.5 35.1522 25.5 37.9503 25.5218C38.2783 25.5218 38.6062 25.6744 38.9341 25.7615C37.5787 28.1372 36.2234 30.5128 34.8898 32.8885C34.715 33.1936 34.5182 33.4987 34.3433 33.8256C31.1298 33.8038 27.9381 33.8038 24.7246 33.782C24.7902 33.5859 24.8339 33.3679 24.9432 33.1718C25.7521 31.7769 26.539 30.3603 27.3698 28.9654C28.0474 27.7885 28.7907 26.6551 29.5121 25.5Z" fill="#0167B2"/>
<path d="M132.695 9.48068C132.695 14.7332 132.695 19.8986 132.695 25.1512C131.514 25.1512 130.356 25.1512 129.109 25.1512C129.088 24.7589 129.066 24.4102 129.066 24.0615C129.066 19.8768 129.131 15.714 129.044 11.5294C129 9.15376 130.377 8.9794 131.973 9.26273C132.17 9.28453 132.389 9.37171 132.695 9.48068Z" fill="#273887"/>
<path d="M133.132 4.20635C133.132 5.51404 132.17 6.49481 130.902 6.47302C129.656 6.45122 128.738 5.51404 128.716 4.24994C128.716 2.94225 129.678 1.96148 130.946 1.98327C132.192 2.00507 133.132 2.96404 133.132 4.20635Z" fill="#273887"/>
<path d="M155.014 10.7013C155.058 10.6577 155.08 10.6141 155.124 10.5705C155.124 10.6359 155.124 10.7013 155.146 10.7667C155.102 10.7449 155.058 10.7231 155.014 10.7013Z" fill="#0D6EAF"/>
<path d="M29.512 25.5C28.7906 26.6551 28.0474 27.7885 27.3478 28.9654C26.5171 30.3603 25.7301 31.7551 24.9213 33.1718C24.812 33.3462 24.7683 33.5641 24.7027 33.7821C24.6371 33.8039 24.5497 33.8257 24.4841 33.8475C22.8227 31.0141 21.1831 28.159 19.5217 25.3257C19.631 25.3257 19.7622 25.3039 19.8715 25.3039C23.0194 25.3039 26.1892 25.3039 29.3372 25.3039C29.3809 25.2821 29.4246 25.2821 29.4902 25.2603C29.4902 25.3257 29.4902 25.4128 29.512 25.5Z" fill="#134A9E"/>
<path d="M10.0561 25.0642C9.83754 24.9116 9.53149 24.8245 9.42218 24.6065C8.48217 23.0373 7.60774 21.4462 6.68959 19.8552C6.25238 19.0706 5.77144 18.3078 5.29051 17.5668C5.20306 17.4142 4.9626 17.3488 4.80957 17.2398C4.89701 17.0873 4.9626 16.9565 5.05004 16.8039C8.26357 16.8039 11.4552 16.8039 14.6688 16.8039C14.7562 16.8257 14.8436 16.8257 14.9311 16.8475H14.9092C14.8874 16.9783 14.8655 17.1091 14.8436 17.2398C14.5376 17.6103 14.166 17.9373 13.9255 18.3514C12.592 20.5527 11.3241 22.8193 10.0561 25.0642Z" fill="#9AD9F0"/>
<path d="M14.8216 17.2179C14.8434 17.0872 14.8653 16.9564 14.8872 16.8256C15.2806 16.8474 15.6741 16.891 16.0676 16.891C18.8002 16.9128 21.5547 16.9128 24.2873 16.9346C24.178 17.2397 24.1124 17.5666 23.9594 17.8282C23.0412 19.4192 22.1012 20.9666 21.2049 22.5795C20.724 23.4513 19.9807 24.1923 19.8933 25.2602C19.784 25.2602 19.6528 25.282 19.5435 25.282C17.9477 22.6013 16.3737 19.8987 14.8216 17.2179Z" fill="#1B1F64"/>
<path d="M14.6467 16.7821C11.4332 16.7821 8.24152 16.7821 5.02799 16.7821C5.88056 15.2346 6.73312 13.709 7.60755 12.1616C8.06663 11.3552 8.52571 10.5269 9.00664 9.72053C9.22525 9.35002 9.50944 9.0231 9.77177 8.67438C9.96851 8.87053 10.1871 9.04489 10.3401 9.28464C10.7992 10.0257 11.2364 10.7667 11.6736 11.5077C12.6574 13.2731 13.6411 15.0385 14.6467 16.7821Z" fill="#80D0EE"/>
<path d="M14.6469 16.7821C13.6632 15.0385 12.6576 13.2731 11.652 11.5295C11.2148 10.7885 10.7775 10.0256 10.3185 9.30641C10.1654 9.08846 9.94684 8.9141 9.7501 8.69615C9.77196 8.63077 9.81568 8.56538 9.83754 8.5C13.0511 8.52179 16.2646 8.5218 19.5 8.54359C18.7567 9.89487 17.9916 11.2462 17.2483 12.5756C16.4613 13.9923 15.6962 15.409 14.9092 16.8038C14.8218 16.8038 14.7343 16.8038 14.6469 16.7821Z" fill="#53C5ED"/>
<path d="M24.2871 16.9565C24.4619 17.109 24.7024 17.218 24.8117 17.3923C26.342 20.0077 27.8504 22.6449 29.3587 25.2603C26.2108 25.2603 23.041 25.2603 19.893 25.2603C19.9805 24.1923 20.7238 23.4513 21.2047 22.5795C22.101 20.9885 23.041 19.4193 23.9591 17.8282C24.0903 17.5667 24.1777 17.2398 24.2871 16.9565Z" fill="#223484"/>
</svg>
