<svg width="27" height="27" viewBox="0 0 27 27" fill="none" xmlns="http://www.w3.org/2000/svg">
<path d="M13.5845 7.59374C10.2939 7.59374 7.67828 10.2094 7.67828 13.5C7.67828 16.7906 10.2939 19.4062 13.5845 19.4062C16.8752 19.4062 19.4908 16.7906 19.4908 13.5C19.4908 10.2094 16.8752 7.59374 13.5845 7.59374ZM13.5845 17.7187C11.222 17.7187 9.36578 15.8625 9.36578 13.5C9.36578 11.1375 11.222 9.28124 13.5845 9.28124C15.947 9.28124 17.8033 11.1375 17.8033 13.5C17.8033 15.8625 15.947 17.7187 13.5845 17.7187Z" fill="#171736"/>
<path d="M25.9875 10.7156L23.625 9.95624L23.1187 8.69062L24.3 6.49687C24.5531 5.99062 24.4687 5.31562 24.0469 4.89375L22.0219 2.86875C21.6 2.44687 20.925 2.3625 20.4187 2.61562L18.225 3.79687L16.9594 3.29062L16.2 0.928124C16.0312 0.421875 15.525 0 14.9344 0H12.0656C11.475 0 10.9687 0.421875 10.8844 1.0125L10.125 3.375C9.61874 3.45937 9.19687 3.62812 8.77499 3.88125L6.58124 2.7C6.075 2.44687 5.4 2.53125 4.97812 2.95312L2.95312 4.97812C2.53125 5.4 2.44687 6.075 2.7 6.58125L3.79687 8.69062C3.62812 9.11249 3.45937 9.61874 3.29062 10.0406L0.928124 10.8C0.421875 10.9687 0 11.475 0 12.0656V14.9344C0 15.525 0.421875 16.0312 1.0125 16.2L3.375 16.9594L3.88125 18.225L2.7 20.4187C2.44687 20.925 2.53125 21.6 2.95312 22.0219L4.97812 24.0469C5.4 24.4687 6.075 24.5531 6.58124 24.3L8.77499 23.1187L10.0406 23.625L10.8 26.0719C10.9687 26.5781 11.475 27 12.0656 27H14.9344C15.525 27 16.0312 26.5781 16.2 26.0719L16.9594 23.625L18.225 23.1187L20.4187 24.3C20.925 24.5531 21.6 24.4687 22.0219 24.0469L24.0469 22.0219C24.4687 21.6 24.5531 20.925 24.3 20.4187L23.1187 18.225L23.625 16.9594L26.0719 16.2C26.5781 16.0312 27 15.525 27 14.9344V12.0656C27 11.475 26.5781 10.8844 25.9875 10.7156ZM25.3125 14.6812L22.275 15.6094L22.1906 16.0312L21.4312 17.8031L21.1781 18.225L22.6969 21.0094L21.0094 22.6969L18.225 21.1781L17.8031 21.4312C17.2125 21.7687 16.6219 22.0219 16.0312 22.1906L15.6094 22.275L14.6812 25.3125H12.3187L11.3906 22.275L10.9687 22.1906L9.19687 21.4312L8.77499 21.1781L5.99062 22.6969L4.30312 21.0094L5.82187 18.225L5.56875 17.8031C5.23125 17.2125 4.97812 16.6219 4.80937 16.0312L4.725 15.6094L1.6875 14.6812V12.3187L4.55625 11.475L4.725 11.0531C4.89375 10.3781 5.14687 9.78749 5.48437 9.19687L5.7375 8.77499L4.30312 5.99062L5.99062 4.30312L8.69062 5.82187L9.11249 5.56875C9.70312 5.23125 10.2937 4.97812 10.9687 4.80937L11.3906 4.64062L12.3187 1.6875H14.6812L15.6094 4.64062L16.0312 4.80937C16.6219 4.97812 17.2125 5.23125 17.8031 5.56875L18.225 5.82187L21.0094 4.30312L22.6969 5.99062L21.1781 8.77499L21.4312 9.19687C21.7687 9.78749 22.0219 10.3781 22.1906 10.9687L22.275 11.3906L25.3125 12.3187V14.6812Z" fill="#171736"/>
</svg>
