<svg width="30" height="54" viewBox="0 0 30 54" fill="none" xmlns="http://www.w3.org/2000/svg">
<g clip-path="url(#clip0_123_84)">
<path d="M15.9324 3.43912C15.6117 3.39642 15.2903 3.37503 14.9688 3.375V0C15.3365 0.000323418 15.7041 0.0250902 16.0709 0.07425L15.9324 3.43912ZM19.6821 4.95787C19.0823 4.5404 18.4663 4.20312 17.839 3.94875L18.2488 0.65475C18.9654 0.945 19.6708 1.32975 20.3557 1.809L19.6821 4.95787ZM22.2455 7.35412C21.9779 7.03232 21.7039 6.72836 21.424 6.44287L22.3465 3.50662C22.9862 4.16048 23.5985 4.89822 24.1783 5.71387L23.0276 8.37675C22.7739 8.01978 22.513 7.6798 22.2455 7.3575V7.35412ZM25.677 13.3954C25.3069 12.4469 24.8985 11.549 24.4552 10.7089L25.8099 8.38012C26.3151 9.342 26.7829 10.3714 27.2076 11.4514L25.677 13.3954ZM27.0691 17.9584C26.9463 17.4233 26.8128 16.8964 26.6687 16.3789L28.3396 14.8601C28.67 16.045 28.9515 17.2724 29.1816 18.5321L27.4041 19.5885C27.3035 19.0379 27.1918 18.4942 27.0691 17.9584ZM28.0608 26.4195C28.0457 25.2596 27.9831 24.1034 27.8737 22.9601L29.7167 22.3864C29.8421 23.6891 29.9151 25.0121 29.9338 26.3351L28.0627 26.4195H28.0608ZM27.8157 31.6102C27.8774 31.0365 27.928 30.4661 27.9673 29.889L29.8252 30.3041C29.7354 31.6209 29.5915 32.9238 29.3949 34.2022L27.5912 33.3011C27.6772 32.7442 27.7521 32.1806 27.8157 31.6102ZM26.0344 39.6394C26.3787 38.6606 26.6818 37.6346 26.9438 36.5749L28.6539 37.9417C28.3546 39.1567 28.0084 40.3245 27.6155 41.445L26.0344 39.6394ZM24.2307 43.7062C24.459 43.2945 24.6779 42.8692 24.8856 42.4305L26.3039 44.6344C26.0637 45.1367 25.8134 45.623 25.5535 46.0924L24.2307 43.7062Z" fill="white"/>
<path d="M14.9687 3.375C12.8148 3.37528 10.6942 4.33366 8.79476 6.16524C6.89529 7.99683 5.27555 10.6451 4.07901 13.8755C2.88247 17.1058 2.14606 20.8186 1.935 24.685C1.72394 28.5513 2.04475 32.4518 2.86901 36.0411C3.69328 39.6304 4.99555 42.7976 6.6605 45.2623C8.32544 47.7269 10.3017 49.4129 12.4141 50.171C14.5266 50.929 16.7101 50.7356 18.7712 49.608C20.8323 48.4803 22.7075 46.4532 24.2306 43.7062L25.5534 46.0924C23.8128 49.2337 21.6695 51.5522 19.3134 52.8424C16.9573 54.1325 14.4612 54.3545 12.0461 53.4886C9.6311 52.6228 7.37176 50.6958 5.46828 47.8785C3.5648 45.0612 2.07597 41.4405 1.13368 37.3372C0.1914 33.234 -0.175235 28.7748 0.0662627 24.3549C0.30776 19.935 1.14993 15.6907 2.51817 11.9982C3.8864 8.30566 5.73844 5.27887 7.9102 3.18601C10.082 1.09315 12.5064 -0.00117697 14.9687 9.49921e-07V3.375Z" fill="white"/>
<path d="M14.0331 10.125C14.2812 10.125 14.5192 10.3028 14.6946 10.6192C14.8701 10.9357 14.9687 11.3649 14.9687 11.8125V29.3962L21.046 35.6602C21.2551 35.8878 21.4067 36.254 21.4681 36.6804C21.5296 37.1069 21.4962 37.5598 21.375 37.9424C21.2538 38.325 21.0544 38.6069 20.8195 38.7278C20.5846 38.8488 20.3328 38.7992 20.1179 38.5897L13.5691 31.8397C13.4259 31.6922 13.3069 31.479 13.2241 31.2218C13.1413 30.9645 13.0976 30.6724 13.0976 30.375V11.8125C13.0976 11.3649 13.1961 10.9357 13.3716 10.6192C13.547 10.3028 13.785 10.125 14.0331 10.125Z" fill="white"/>
</g>
<defs>
<clipPath id="clip0_123_84">
<rect width="29.6308" height="53.4468" fill="white" transform="scale(1.01035)"/>
</clipPath>
</defs>
</svg>
